<?xml version="1.0" encoding="utf-8"?><svg viewBox="0 0 25 25" xmlns="http://www.w3.org/2000/svg" xmlns:xlink="http://www.w3.org/1999/xlink"><style>:root>svg{display:none}:root>svg:target{display:block}</style><svg viewBox="0 0 24 25" id="account" xmlns="http://www.w3.org/2000/svg"><path d="M4 21.5v-1a6 6 0 0 1 6-6h4a6 6 0 0 1 6 6v1M12 11.5a4 4 0 1 1 0-8 4 4 0 0 1 0 8Z" stroke-width="2" stroke-linecap="round"/></svg><svg viewBox="0 0 25 24" id="arrow-right" xmlns="http://www.w3.org/2000/svg"><path d="M2.5 11a1 1 0 1 0 0 2v-2Zm20.707 1.707a1 1 0 0 0 0-1.414l-6.364-6.364a1 1 0 1 0-1.414 1.414L21.086 12l-5.657 5.657a1 1 0 0 0 1.414 1.414l6.364-6.364ZM2.5 13h20v-2h-20v2Z"/></svg><svg viewBox="0 0 16 19" id="cart" xmlns="http://www.w3.org/2000/svg"><path d="M15.894 16.825 15.356 4.68a1.648 1.648 0 0 0-1.649-1.624h-2.733C10.752 1.627 9.502.5 7.998.5S5.243 1.626 5.021 3.057h-2.73c-.902 0-1.638.727-1.648 1.624L.106 16.824v.032c0 .906.739 1.644 1.648 1.644h12.492a1.648 1.648 0 0 0 1.648-1.675ZM7.998 1.9c.729 0 1.346.488 1.543 1.156H6.454a1.615 1.615 0 0 1 1.544-1.156Zm6.248 15.2H1.754a.244.244 0 0 1-.248-.234l.537-12.136v-.033c0-.135.11-.242.249-.242H4.98v2.56a.7.7 0 1 0 1.399 0v-2.56h3.222v2.56a.7.7 0 1 0 1.399 0v-2.56h2.706c.14 0 .249.107.249.242v.032l.538 12.137a.244.244 0 0 1-.248.234Z"/></svg><svg viewBox="0 0 20 21" id="facebook" xmlns="http://www.w3.org/2000/svg"><path d="M20 10.5c0-5.52-4.48-10-10-10S0 4.98 0 10.5c0 4.84 3.44 8.87 8 9.8v-6.8H6v-3h2V8c0-1.93 1.57-3.5 3.5-3.5H14v3h-2c-.55 0-1 .45-1 1v2h3v3h-3v6.95c5.05-.5 9-4.76 9-9.95Z"/><path d="M20 10.5c0-5.52-4.48-10-10-10S0 4.98 0 10.5c0 4.84 3.44 8.87 8 9.8v-6.8H6v-3h2V8c0-1.93 1.57-3.5 3.5-3.5H14v3h-2c-.55 0-1 .45-1 1v2h3v3h-3v6.95c5.05-.5 9-4.76 9-9.95Z" fill-opacity=".2"/></svg><svg viewBox="0 0 20 21" id="instagram" xmlns="http://www.w3.org/2000/svg"><path d="M5.8.5h8.4C17.4.5 20 3.1 20 6.3v8.4a5.8 5.8 0 0 1-5.8 5.8H5.8c-3.2 0-5.8-2.6-5.8-5.8V6.3A5.8 5.8 0 0 1 5.8.5Zm-.2 2A3.6 3.6 0 0 0 2 6.1v8.8c0 1.99 1.61 3.6 3.6 3.6h8.8a3.6 3.6 0 0 0 3.6-3.6V6.1c0-1.99-1.61-3.6-3.6-3.6H5.6ZM15.25 4a1.25 1.25 0 1 1 0 2.5 1.25 1.25 0 0 1 0-2.5ZM10 5.5a5 5 0 1 1 0 10 5 5 0 0 1 0-10Zm0 2a3 3 0 1 0 0 6 3 3 0 0 0 0-6Z"/><path d="M5.8.5h8.4C17.4.5 20 3.1 20 6.3v8.4a5.8 5.8 0 0 1-5.8 5.8H5.8c-3.2 0-5.8-2.6-5.8-5.8V6.3A5.8 5.8 0 0 1 5.8.5Zm-.2 2A3.6 3.6 0 0 0 2 6.1v8.8c0 1.99 1.61 3.6 3.6 3.6h8.8a3.6 3.6 0 0 0 3.6-3.6V6.1c0-1.99-1.61-3.6-3.6-3.6H5.6ZM15.25 4a1.25 1.25 0 1 1 0 2.5 1.25 1.25 0 0 1 0-2.5ZM10 5.5a5 5 0 1 1 0 10 5 5 0 0 1 0-10Zm0 2a3 3 0 1 0 0 6 3 3 0 0 0 0-6Z" fill-opacity=".2"/></svg><svg viewBox="0 0 12 14" id="map-pin" xmlns="http://www.w3.org/2000/svg"><path d="M10.243 2.09a6 6 0 0 1 .135 8.347l-.135.14-2.829 2.828a2 2 0 0 1-2.731.09l-.096-.09-2.83-2.829a6 6 0 0 1 8.486-8.485ZM6 4.334a2 2 0 1 0 0 4 2 2 0 0 0 0-4Z"/></svg><svg viewBox="0 0 24 24" id="settings" xmlns="http://www.w3.org/2000/svg"><path d="M20.25 12.57v-1.148l1.44-1.26a1.5 1.5 0 0 0 .286-1.912l-1.77-3a1.5 1.5 0 0 0-1.298-.75 1.5 1.5 0 0 0-.48.075l-1.822.615a8.51 8.51 0 0 0-.983-.563l-.382-1.89a1.5 1.5 0 0 0-1.5-1.207h-3.51a1.5 1.5 0 0 0-1.5 1.207l-.383 1.89a8.61 8.61 0 0 0-.99.563l-1.785-.645a1.5 1.5 0 0 0-.48-.045 1.5 1.5 0 0 0-1.297.75l-1.77 3a1.5 1.5 0 0 0 .307 1.883l1.418 1.297v1.148l-1.418 1.26a1.5 1.5 0 0 0-.307 1.912l1.77 3a1.5 1.5 0 0 0 1.297.75c.163.001.326-.024.48-.075l1.823-.615c.315.21.643.397.982.563l.383 1.89a1.5 1.5 0 0 0 1.5 1.207h3.54a1.5 1.5 0 0 0 1.5-1.207l.382-1.89c.343-.166.673-.354.99-.563l1.815.615c.155.05.317.076.48.075a1.501 1.501 0 0 0 1.298-.75l1.71-3a1.5 1.5 0 0 0-.308-1.883l-1.417-1.297ZM18.909 18l-2.572-.87c-.602.51-1.29.909-2.033 1.178L13.771 21h-3.54l-.533-2.663a7.02 7.02 0 0 1-2.025-1.177l-2.58.84-1.77-3 2.04-1.8a6.675 6.675 0 0 1 0-2.348L3.323 9l1.77-3 2.573.87a6.645 6.645 0 0 1 2.032-1.178L10.231 3h3.54l.532 2.662a7.02 7.02 0 0 1 2.025 1.178l2.58-.84 1.77 3-2.04 1.8a6.674 6.674 0 0 1 0 2.348L20.678 15l-1.77 3Z"/><path d="M12 16.5a4.5 4.5 0 1 1 4.5-4.5 4.456 4.456 0 0 1-4.5 4.5ZM12 9a2.933 2.933 0 0 0-3 3 2.933 2.933 0 0 0 3 3 2.933 2.933 0 0 0 3-3 2.933 2.933 0 0 0-3-3Z"/></svg></svg>