<?xml version="1.0" encoding="utf-8"?><svg viewBox="0 0 336 653" xmlns="http://www.w3.org/2000/svg" xmlns:xlink="http://www.w3.org/1999/xlink"><style>:root>svg{display:none}:root>svg:target{display:block}</style><svg viewBox="0 0 24 25" id="account" xmlns="http://www.w3.org/2000/svg"><path d="M4 21.5v-1a6 6 0 0 1 6-6h4a6 6 0 0 1 6 6v1M12 11.5a4 4 0 1 1 0-8 4 4 0 0 1 0 8Z" stroke-width="2" stroke-linecap="round"/></svg><svg viewBox="0 0 25 24" id="arrow-right" xmlns="http://www.w3.org/2000/svg"><path d="M2.5 11a1 1 0 1 0 0 2v-2Zm20.707 1.707a1 1 0 0 0 0-1.414l-6.364-6.364a1 1 0 1 0-1.414 1.414L21.086 12l-5.657 5.657a1 1 0 0 0 1.414 1.414l6.364-6.364ZM2.5 13h20v-2h-20v2Z"/></svg><svg viewBox="0 0 16 19" id="cart" xmlns="http://www.w3.org/2000/svg"><path d="M15.894 16.825 15.356 4.68a1.648 1.648 0 0 0-1.649-1.624h-2.733C10.752 1.627 9.502.5 7.998.5S5.243 1.626 5.021 3.057h-2.73c-.902 0-1.638.727-1.648 1.624L.106 16.824v.032c0 .906.739 1.644 1.648 1.644h12.492a1.648 1.648 0 0 0 1.648-1.675ZM7.998 1.9c.729 0 1.346.488 1.543 1.156H6.454a1.615 1.615 0 0 1 1.544-1.156Zm6.248 15.2H1.754a.244.244 0 0 1-.248-.234l.537-12.136v-.033c0-.135.11-.242.249-.242H4.98v2.56a.7.7 0 1 0 1.399 0v-2.56h3.222v2.56a.7.7 0 1 0 1.399 0v-2.56h2.706c.14 0 .249.107.249.242v.032l.538 12.137a.244.244 0 0 1-.248.234Z"/></svg><svg viewBox="0 0 336 89" id="decoration-mobile-left" xmlns="http://www.w3.org/2000/svg"><path d="M319.914 80.949c27.098-11.046-13.541-59.159-81.708-59.15-77.099.009-83.858 69.127-175.481 40.58-91.623-28.546-48.286-49.516-17.256-52.456C87.034 5.985 142.114 5.72 122.39 34.23 106.876 56.654 49.529 78.534 22 80.95" stroke-width="15" stroke-linecap="round"/></svg><svg viewBox="0 0 336 104" id="decoration-mobile-right" xmlns="http://www.w3.org/2000/svg"><path d="M8 19.83c61.904-1.48 140.819 35.197 135.756 53.962 1.834 20.516-26.102 26.451-48.13 12.23-22.027-14.222 9.495-33.333 28.009-41.11 20.414-8.576 55.828-27.333 75.957-22.593 20.128 4.74 33.706 24.444 39.877 42.592 6.172 18.148-5.032 38.295-36.554 28.518-31.522-9.778-51.281-40.63-14.912-49.87L328 7.986" stroke-width="15" stroke-linecap="round"/></svg><svg viewBox="0 0 326 485" id="decoration1" xmlns="http://www.w3.org/2000/svg"><path d="M26.426 457.562c40.216 38.411 215.464-19.186 215.464-115.81 0-109.285-251.73-118.878-147.723-248.746C198.174-36.86 239.449 27.96 284.33 68.54c58.67 53.05 16.16 137.008-87.664 109.045C115 155.59 23.783 107.561 15 68.54" stroke-width="30" stroke-linecap="round"/></svg><svg viewBox="0 0 251 653" id="decoration2" xmlns="http://www.w3.org/2000/svg"><path d="M205.636 15.659c3.69 120.314-87.683 273.69-134.431 263.848-51.111 3.565-65.897-50.73-30.467-93.542 35.43-42.811 83.039 18.453 102.415 54.437 21.363 39.675 68.093 108.505 56.283 147.626-11.811 39.12-60.896 65.508-106.106 77.503-45.21 11.995-95.403-9.78-71.045-71.045 24.358-61.264 101.216-99.668 124.238-28.983l88.62 272.093" stroke-width="30" stroke-linecap="round"/></svg><svg viewBox="0 0 20 21" id="facebook" xmlns="http://www.w3.org/2000/svg"><path d="M20 10.5c0-5.52-4.48-10-10-10S0 4.98 0 10.5c0 4.84 3.44 8.87 8 9.8v-6.8H6v-3h2V8c0-1.93 1.57-3.5 3.5-3.5H14v3h-2c-.55 0-1 .45-1 1v2h3v3h-3v6.95c5.05-.5 9-4.76 9-9.95Z"/><path d="M20 10.5c0-5.52-4.48-10-10-10S0 4.98 0 10.5c0 4.84 3.44 8.87 8 9.8v-6.8H6v-3h2V8c0-1.93 1.57-3.5 3.5-3.5H14v3h-2c-.55 0-1 .45-1 1v2h3v3h-3v6.95c5.05-.5 9-4.76 9-9.95Z" fill-opacity=".2"/></svg><svg viewBox="0 0 20 21" id="instagram" xmlns="http://www.w3.org/2000/svg"><path d="M5.8.5h8.4C17.4.5 20 3.1 20 6.3v8.4a5.8 5.8 0 0 1-5.8 5.8H5.8c-3.2 0-5.8-2.6-5.8-5.8V6.3A5.8 5.8 0 0 1 5.8.5Zm-.2 2A3.6 3.6 0 0 0 2 6.1v8.8c0 1.99 1.61 3.6 3.6 3.6h8.8a3.6 3.6 0 0 0 3.6-3.6V6.1c0-1.99-1.61-3.6-3.6-3.6H5.6ZM15.25 4a1.25 1.25 0 1 1 0 2.5 1.25 1.25 0 0 1 0-2.5ZM10 5.5a5 5 0 1 1 0 10 5 5 0 0 1 0-10Zm0 2a3 3 0 1 0 0 6 3 3 0 0 0 0-6Z"/><path d="M5.8.5h8.4C17.4.5 20 3.1 20 6.3v8.4a5.8 5.8 0 0 1-5.8 5.8H5.8c-3.2 0-5.8-2.6-5.8-5.8V6.3A5.8 5.8 0 0 1 5.8.5Zm-.2 2A3.6 3.6 0 0 0 2 6.1v8.8c0 1.99 1.61 3.6 3.6 3.6h8.8a3.6 3.6 0 0 0 3.6-3.6V6.1c0-1.99-1.61-3.6-3.6-3.6H5.6ZM15.25 4a1.25 1.25 0 1 1 0 2.5 1.25 1.25 0 0 1 0-2.5ZM10 5.5a5 5 0 1 1 0 10 5 5 0 0 1 0-10Zm0 2a3 3 0 1 0 0 6 3 3 0 0 0 0-6Z" fill-opacity=".2"/></svg></svg>