<svg width="101" height="36" fill="none" xmlns="http://www.w3.org/2000/svg"><path d="M36 19.572l.32-.011c4.885-.202 9.453-2.272 12.86-5.827A18.97 18.97 0 0054.479.552V0H30.438v.552a35.175 35.175 0 005.396 18.75l.169.27H36zM99.947 0H74.57v.552c0 13.429-6.76 25.785-18.085 33.052l-1.062.683 1.222.317a34.973 34.973 0 008.823 1.126C84.783 35.73 100.5 19.95 100.5.552V0h-.553z" fill="#fff"/><path d="M70.56.552V0H58.485v.552c0 12.713-10.3 23.053-22.956 23.053-12.657 0-22.956-10.34-22.956-23.053V0H.5v.552C.5 19.95 16.214 35.73 35.533 35.73c19.318 0 35.032-15.78 35.032-35.178h-.006z" fill="#fff"/></svg>