<svg width="34" height="34" fill="none" xmlns="http://www.w3.org/2000/svg"><path d="M32.938 16.469a7.453 7.453 0 00-4.25-6.722v-.185A6.375 6.375 0 0017 6.044 6.375 6.375 0 005.313 9.562v.185a7.437 7.437 0 000 13.44v.188A6.375 6.375 0 0017 26.893a6.375 6.375 0 0011.688-3.518v-.187a7.45 7.45 0 004.25-6.72zm-21.25 11.156a4.25 4.25 0 01-4.225-3.793c.343.049.69.074 1.037.074h1.063a1.063 1.063 0 000-2.125H8.5a5.313 5.313 0 01-1.77-10.323 1.063 1.063 0 00.708-1.002v-.894a4.25 4.25 0 018.5 0v9.066A6.349 6.349 0 0011.688 17a1.062 1.062 0 100 2.125 4.25 4.25 0 010 8.5zM25.5 21.78h-1.063a1.062 1.062 0 100 2.125H25.5c.347 0 .694-.025 1.037-.074a4.25 4.25 0 11-4.224-4.707 1.062 1.062 0 100-2.125 6.349 6.349 0 00-4.25 1.628V9.562a4.25 4.25 0 018.5 0v.894a1.063 1.063 0 00.707 1.002A5.312 5.312 0 0125.5 21.78zm2.125-6.906a1.062 1.062 0 01-1.063 1.062h-.53a4.781 4.781 0 01-4.782-4.78v-.532a1.063 1.063 0 012.125 0v.531a2.656 2.656 0 002.656 2.656h.532a1.063 1.063 0 011.062 1.063zM7.969 15.937h-.531a1.062 1.062 0 110-2.125h.53a2.656 2.656 0 002.657-2.656v-.531a1.063 1.063 0 012.125 0v.531a4.781 4.781 0 01-4.781 4.781z" fill="#0075FF"/></svg>