<svg width="35" height="34" fill="none" xmlns="http://www.w3.org/2000/svg"><path d="M4.85 17a12.75 12.75 0 1025.499 0 12.75 12.75 0 00-25.5 0z" stroke="#0075FF" stroke-width="2" stroke-linecap="round" stroke-linejoin="round"/><path d="M20.244 13.813c-.348-.68-1.003-1.09-1.7-1.063h-1.89c-1.042 0-1.888.95-1.888 2.125 0 1.172.846 2.124 1.889 2.124h1.89c1.042 0 1.888.95 1.888 2.125 0 1.173-.846 2.123-1.889 2.123h-1.89c-.696.027-1.35-.382-1.7-1.062M17.6 9.917v2.833m0 8.5v2.833M9.1 8.5l2.125 2.125m12.75 12.75L26.1 25.5" stroke="#0075FF" stroke-width="2" stroke-linecap="round" stroke-linejoin="round"/></svg>